# xmcd
#
# Track frame offsets: 
#        150
#        16220
#        33435
#        48787
#        71937
#        90010
#        110450
#        127460
#        145970
#        164815
#        181027
#        196765
#        222315
#        236410
#        252112
#        272762
#        298557
#        314880
#
# Disc length: 4471 seconds
#
# Revision: 4
# Processed by: cddbd v1.5.2PL0 Copyright (c) Steve Scherf et al.
# Submitted via: ExactAudioCopyFreeDBPlugin 1.0
#
DISCID=0c117512
DTITLE=The Rolling Stones - Jump Back - '71-'93 - The Best of the Roll
DTITLE=ing Stones
DYEAR=1993
DGENRE=Rock
TTITLE0=Start Me Up
TTITLE1=Brown Sugar
TTITLE2=Harlem Shuffle
TTITLE3=It's Only Rock 'n Roll
TTITLE4=Mixed Emotions (single version)
TTITLE5=Angie
TTITLE6=Tumbling Dice
TTITLE7=Fool to Cry (single version)
TTITLE8=Rock and a Hard Place (single version)
TTITLE9=Miss You
TTITLE10=Hot Stuff (single version)
TTITLE11=Emotional Rescue
TTITLE12=Respectable
TTITLE13=Beast of Burden
TTITLE14=Waiting on a Friend
TTITLE15=Wild Horses
TTITLE16=Bitch
TTITLE17=Undercover of the Night
EXTD=
EXTT0=
EXTT1=
EXTT2=
EXTT3=
EXTT4=
EXTT5=
EXTT6=
EXTT7=
EXTT8=
EXTT9=
EXTT10=
EXTT11=
EXTT12=
EXTT13=
EXTT14=
EXTT15=
EXTT16=
EXTT17=
PLAYORDER=
